  0
SECTION
  2
HEADER
  9
$ACADVER
  1
AC1015
  9
$ACADMAINTVER
 70
     6
  9
$DWGCODEPAGE
  3
ANSI_1252
  9
$INSBASE
 10
0.0
 20
0.0
 30
0.0
  9
$EXTMIN
 10
0.269230688
 20
-0.0897435897
 30
0.0
  9
$EXTMAX
 10
17.9935897436
 20
3.5897435897
 30
0.0
  9
$LIMMIN
 10
0.0
 20
0.0
  9
$LIMMAX
 10
420.0
 20
297.0
  9
$ORTHOMODE
 70
     0
  9
$REGENMODE
 70
     1
  9
$FILLMODE
 70
     1
  9
$QTEXTMODE
 70
     0
  9
$MIRRTEXT
 70
     1
  9
$LTSCALE
 40
1.0
  9
$ATTMODE
 70
     1
  9
$TEXTSIZE
 40
3.5
  9
$TRACEWID
 40
1.0
  9
$TEXTSTYLE
  7
Standard
  9
$CLAYER
  8
0
  9
$CELTYPE
  6
ByLayer
  9
$CECOLOR
 62
   256
  9
$CELTSCALE
 40
1.0
  9
$DISPSILH
 70
     0
  9
$DIMSCALE
 40
1.0
  9
$DIMASZ
 40
3.302
  9
$DIMEXO
 40
1.0
  9
$DIMDLI
 40
3.75
  9
$DIMRND
 40
0.0
  9
$DIMDLE
 40
0.0
  9
$DIMEXE
 40
1.0
  9
$DIMTP
 40
0.0
  9
$DIMTM
 40
0.0
  9
$DIMTXT
 40
3.5
  9
$DIMCEN
 40
2.5
  9
$DIMTSZ
 40
0.0
  9
$DIMTOL
 70
     0
  9
$DIMLIM
 70
     0
  9
$DIMTIH
 70
     1
  9
$DIMTOH
 70
     1
  9
$DIMSE1
 70
     0
  9
$DIMSE2
 70
     0
  9
$DIMTAD
 70
     1
  9
$DIMZIN
 70
     0
  9
$DIMBLK
  1

  9
$DIMASO
 70
     1
  9
$DIMSHO
 70
     1
  9
$DIMPOST
  1

  9
$DIMAPOST
  1

  9
$DIMALT
 70
     0
  9
$DIMALTD
 70
     3
  9
$DIMALTF
 40
0.0393700787
  9
$DIMLFAC
 40
1.0
  9
$DIMTOFL
 70
     1
  9
$DIMTVP
 40
0.0
  9
$DIMTIX
 70
     0
  9
$DIMSOXD
 70
     0
  9
$DIMSAH
 70
     0
  9
$DIMBLK1
  1

  9
$DIMBLK2
  1

  9
$DIMSTYLE
  2
ISO-25
  9
$DIMCLRD
 70
     0
  9
$DIMCLRE
 70
     0
  9
$DIMCLRT
 70
     0
  9
$DIMTFAC
 40
1.0
  9
$DIMGAP
 40
1.524
  9
$DIMJUST
 70
     0
  9
$DIMSD1
 70
     0
  9
$DIMSD2
 70
     0
  9
$DIMTOLJ
 70
     0
  9
$DIMTZIN
 70
     0
  9
$DIMALTZ
 70
     0
  9
$DIMALTTZ
 70
     0
  9
$DIMUPT
 70
     0
  9
$DIMDEC
 70
     2
  9
$DIMTDEC
 70
     2
  9
$DIMALTU
 70
     2
  9
$DIMALTTD
 70
     3
  9
$DIMTXSTY
  7
Standard
  9
$DIMAUNIT
 70
     0
  9
$DIMADEC
 70
     2
  9
$DIMALTRND
 40
0.0
  9
$DIMAZIN
 70
     0
  9
$DIMDSEP
 70
    44
  9
$DIMATFIT
 70
     3
  9
$DIMFRAC
 70
     0
  9
$DIMLDRBLK
  1

  9
$DIMLUNIT
 70
     2
  9
$DIMLWD
 70
    -2
  9
$DIMLWE
 70
    -2
  9
$DIMTMOVE
 70
     0
  9
$LUNITS
 70
     2
  9
$LUPREC
 70
     2
  9
$SKETCHINC
 40
1.0
  9
$FILLETRAD
 40
10.0
  9
$AUNITS
 70
     0
  9
$AUPREC
 70
     2
  9
$MENU
  1
.
  9
$ELEVATION
 40
0.0
  9
$PELEVATION
 40
0.0
  9
$THICKNESS
 40
0.0
  9
$LIMCHECK
 70
     0
  9
$CHAMFERA
 40
0.0
  9
$CHAMFERB
 40
0.0
  9
$CHAMFERC
 40
0.0
  9
$CHAMFERD
 40
0.0
  9
$SKPOLY
 70
     0
  9
$TDCREATE
 40
2458787.190953114
  9
$TDUCREATE
 40
2458787.48261978
  9
$TDUPDATE
 40
2458787.190976111
  9
$TDUUPDATE
 40
2458787.482642778
  9
$TDINDWG
 40
0.0000000116
  9
$TDUSRTIMER
 40
0.0000000116
  9
$USRTIMER
 70
     1
  9
$ANGBASE
 50
0.0
  9
$ANGDIR
 70
     0
  9
$PDMODE
 70
     0
  9
$PDSIZE
 40
-1.0
  9
$PLINEWID
 40
0.0
  9
$SPLFRAME
 70
     0
  9
$SPLINETYPE
 70
     6
  9
$SPLINESEGS
 70
     8
  9
$HANDSEED
  5
76
  9
$SURFTAB1
 70
     6
  9
$SURFTAB2
 70
     6
  9
$SURFTYPE
 70
     6
  9
$SURFU
 70
     6
  9
$SURFV
 70
     6
  9
$UCSBASE
  2

  9
$UCSNAME
  2

  9
$UCSORG
 10
0.0
 20
0.0
 30
0.0
  9
$UCSXDIR
 10
1.0
 20
0.0
 30
0.0
  9
$UCSYDIR
 10
0.0
 20
1.0
 30
0.0
  9
$UCSORTHOREF
  2

  9
$UCSORTHOVIEW
 70
     0
  9
$UCSORGTOP
 10
0.0
 20
0.0
 30
0.0
  9
$UCSORGBOTTOM
 10
0.0
 20
0.0
 30
0.0
  9
$UCSORGLEFT
 10
0.0
 20
0.0
 30
0.0
  9
$UCSORGRIGHT
 10
0.0
 20
0.0
 30
0.0
  9
$UCSORGFRONT
 10
0.0
 20
0.0
 30
0.0
  9
$UCSORGBACK
 10
0.0
 20
0.0
 30
0.0
  9
$PUCSBASE
  2

  9
$PUCSNAME
  2

  9
$PUCSORG
 10
0.0
 20
0.0
 30
0.0
  9
$PUCSXDIR
 10
1.0
 20
0.0
 30
0.0
  9
$PUCSYDIR
 10
0.0
 20
1.0
 30
0.0
  9
$PUCSORTHOREF
  2

  9
$PUCSORTHOVIEW
 70
     0
  9
$PUCSORGTOP
 10
0.0
 20
0.0
 30
0.0
  9
$PUCSORGBOTTOM
 10
0.0
 20
0.0
 30
0.0
  9
$PUCSORGLEFT
 10
0.0
 20
0.0
 30
0.0
  9
$PUCSORGRIGHT
 10
0.0
 20
0.0
 30
0.0
  9
$PUCSORGFRONT
 10
0.0
 20
0.0
 30
0.0
  9
$PUCSORGBACK
 10
0.0
 20
0.0
 30
0.0
  9
$USERI1
 70
     0
  9
$USERI2
 70
     0
  9
$USERI3
 70
     0
  9
$USERI4
 70
     0
  9
$USERI5
 70
     0
  9
$USERR1
 40
0.0
  9
$USERR2
 40
0.0
  9
$USERR3
 40
0.0
  9
$USERR4
 40
0.0
  9
$USERR5
 40
0.0
  9
$WORLDVIEW
 70
     1
  9
$SHADEDGE
 70
     3
  9
$SHADEDIF
 70
    70
  9
$TILEMODE
 70
     1
  9
$MAXACTVP
 70
    64
  9
$PINSBASE
 10
0.0
 20
0.0
 30
0.0
  9
$PLIMCHECK
 70
     0
  9
$PEXTMIN
 10
1.0000000000E+20
 20
1.0000000000E+20
 30
1.0000000000E+20
  9
$PEXTMAX
 10
-1.0000000000E+20
 20
-1.0000000000E+20
 30
-1.0000000000E+20
  9
$PLIMMIN
 10
0.0
 20
0.0
  9
$PLIMMAX
 10
420.0
 20
297.0
  9
$UNITMODE
 70
     0
  9
$VISRETAIN
 70
     1
  9
$PLINEGEN
 70
     0
  9
$PSLTSCALE
 70
     1
  9
$TREEDEPTH
 70
  3020
  9
$CMLSTYLE
  2
Standard
  9
$CMLJUST
 70
     0
  9
$CMLSCALE
 40
20.0
  9
$PROXYGRAPHICS
 70
     1
  9
$MEASUREMENT
 70
     1
  9
$CELWEIGHT
370
    -1
  9
$ENDCAPS
280
     0
  9
$JOINSTYLE
280
     0
  9
$LWDISPLAY
290
     1
  9
$INSUNITS
 70
     4
  9
$HYPERLINKBASE
  1

  9
$STYLESHEET
  1

  9
$XEDIT
290
     1
  9
$CEPSNTYPE
380
     0
  9
$PSTYLEMODE
290
     1
  9
$FINGERPRINTGUID
  2
{8B740800-7FB7-44F4-A31B-C825E37E488C}
  9
$VERSIONGUID
  2
{FAEB1C32-E019-11D5-929B-00C0DF256EC4}
  9
$EXTNAMES
290
     1
  9
$PSVPSCALE
 40
0.0
  9
$OLESTARTUP
290
     0
  0
ENDSEC
  0
SECTION
  2
CLASSES
  0
CLASS
  1
ACDBDICTIONARYWDFLT
  2
AcDbDictionaryWithDefault
  3
ObjectDBX Classes
 90
        0
280
     0
281
     0
  0
CLASS
  1
VISUALSTYLE
  2
AcDbVisualStyle
  3
ObjectDBX Classes
 90
     4095
280
     0
281
     0
  0
CLASS
  1
MATERIAL
  2
AcDbMaterial
  3
ObjectDBX Classes
 90
     1153
280
     0
281
     0
  0
CLASS
  1
SCALE
  2
AcDbScale
  3
ObjectDBX Classes
 90
     1153
280
     0
281
     0
  0
CLASS
  1
SUN
  2
AcDbSun
  3
SCENEOE
 90
     1153
280
     0
281
     0
  0
CLASS
  1
ACDBPLACEHOLDER
  2
AcDbPlaceHolder
  3
ObjectDBX Classes
 90
        0
280
     0
281
     0
  0
CLASS
  1
LAYOUT
  2
AcDbLayout
  3
ObjectDBX Classes
 90
        0
280
     0
281
     0
  0
ENDSEC
  0
SECTION
  2
TABLES
  0
TABLE
  2
VPORT
  5
8
330
0
100
AcDbSymbolTable
 70
     1
  0
VPORT
  5
29
330
8
100
AcDbSymbolTableRecord
100
AcDbViewportTableRecord
  2
*Active
 70
     0
 10
0.0
 20
0.0
 11
1.0
 21
1.0
 12
9.1314102158
 22
1.75
 13
0.0
 23
0.0
 14
10.0
 24
10.0
 15
10.0
 25
10.0
 16
0.0
 26
0.0
 36
1.0
 17
0.0
 27
0.0
 37
0.0
 40
3.7530769231
 41
4.8170731928
 42
50.0
 43
0.0
 44
0.0
 50
0.0
 51
0.0
 71
     0
 72
   100
 73
     1
 74
     3
 75
     0
 76
     0
 77
     0
 78
     0
281
     0
 65
     1
110
0.0
120
0.0
130
0.0
111
1.0
121
0.0
131
0.0
112
0.0
122
1.0
132
0.0
 79
     0
146
0.0
  0
ENDTAB
  0
TABLE
  2
LTYPE
  5
5
330
0
100
AcDbSymbolTable
 70
     6
  0
LTYPE
  5
14
330
5
100
AcDbSymbolTableRecord
100
AcDbLinetypeTableRecord
  2
ByBlock
 70
     0
  3

 72
    65
 73
     0
 40
0.0
  0
LTYPE
  5
15
330
5
100
AcDbSymbolTableRecord
100
AcDbLinetypeTableRecord
  2
ByLayer
 70
     0
  3

 72
    65
 73
     0
 40
0.0
  0
LTYPE
  5
16
330
5
100
AcDbSymbolTableRecord
100
AcDbLinetypeTableRecord
  2
Continuous
 70
     0
  3
Solid line
 72
    65
 73
     0
 40
0.0
  0
LTYPE
  5
6A
330
5
100
AcDbSymbolTableRecord
100
AcDbLinetypeTableRecord
  2
HIDDEN
 70
     0
  3
Hidden __ __ __ __ __ __ __ __ __ __ __ __ __ __
 72
    65
 73
     2
 40
1.905
 49
1.27
 74
     0
 49
-0.635
 74
     0
  0
LTYPE
  5
6B
330
5
100
AcDbSymbolTableRecord
100
AcDbLinetypeTableRecord
  2
PHANTOM
 70
     0
  3
Phantom ______  __  __  ______  __  __  ______
 72
    65
 73
     6
 40
12.7
 49
6.35
 74
     0
 49
-1.27
 74
     0
 49
1.27
 74
     0
 49
-1.27
 74
     0
 49
1.27
 74
     0
 49
-1.27
 74
     0
  0
LTYPE
  5
6C
330
5
100
AcDbSymbolTableRecord
100
AcDbLinetypeTableRecord
  2
CENTER
 70
     0
  3
Center ____ _ ____ _ ____ _ ____ _ ____ _ ____
 72
    65
 73
     4
 40
10.16
 49
6.35
 74
     0
 49
-1.27
 74
     0
 49
1.27
 74
     0
 49
-1.27
 74
     0
  0
LTYPE
  5
6D
330
5
100
AcDbSymbolTableRecord
100
AcDbLinetypeTableRecord
  2
CENTERX2
 70
     0
  3
Center (2x) ________  __  ________  __  _____
 72
    65
 73
     4
 40
20.32
 49
12.7
 74
     0
 49
-2.54
 74
     0
 49
2.54
 74
     0
 49
-2.54
 74
     0
  0
LTYPE
  5
6E
330
5
100
AcDbSymbolTableRecord
100
AcDbLinetypeTableRecord
  2
DOT2
 70
     0
  3
Dot (.5x) ........................................
 72
    65
 73
     2
 40
0.635
 49
0.0
 74
     0
 49
-0.635
 74
     0
  0
ENDTAB
  0
TABLE
  2
LAYER
  5
2
330
0
100
AcDbSymbolTable
 70
     1
  0
LAYER
  5
10
330
2
100
AcDbSymbolTableRecord
100
AcDbLayerTableRecord
  2
0
 70
     0
 62
     7
  6
Continuous
370
    -3
390
F
  0
ENDTAB
  0
TABLE
  2
STYLE
  5
3
330
0
100
AcDbSymbolTable
 70
     1
  0
STYLE
  5
11
330
3
100
AcDbSymbolTableRecord
100
AcDbTextStyleTableRecord
  2
Standard
 70
     0
 40
0.0
 41
1.0
 50
0.0
 71
     0
 42
3.5
  3
txt
  4

  0
ENDTAB
  0
TABLE
  2
VIEW
  5
6
330
0
100
AcDbSymbolTable
 70
     0
  0
ENDTAB
  0
TABLE
  2
UCS
  5
7
330
0
100
AcDbSymbolTable
 70
     0
  0
ENDTAB
  0
TABLE
  2
APPID
  5
9
330
0
100
AcDbSymbolTable
 70
     1
  0
APPID
  5
12
330
9
100
AcDbSymbolTableRecord
100
AcDbRegAppTableRecord
  2
ACAD
 70
     0
  0
ENDTAB
  0
TABLE
  2
DIMSTYLE
  5
A
330
0
100
AcDbSymbolTable
 70
     1
100
AcDbDimStyleTable
  0
DIMSTYLE
105
27
330
A
100
AcDbSymbolTableRecord
100
AcDbDimStyleTableRecord
  2
ISO-25
 70
     0
 41
2.5
 42
0.625
 43
3.75
 44
1.25
 73
     0
 74
     0
 77
     1
 78
     8
140
2.5
141
2.5
143
0.0393700787
147
0.625
171
     3
172
     1
178
     0
271
     2
272
     2
274
     3
278
    44
283
     0
284
     8
340
11
  0
ENDTAB
  0
TABLE
  2
BLOCK_RECORD
  5
1
330
0
100
AcDbSymbolTable
 70
     1
  0
BLOCK_RECORD
  5
1F
330
1
100
AcDbSymbolTableRecord
100
AcDbBlockTableRecord
  2
*Model_Space
340
22
  0
BLOCK_RECORD
  5
1B
330
1
100
AcDbSymbolTableRecord
100
AcDbBlockTableRecord
  2
*Paper_Space
340
1E
  0
BLOCK_RECORD
  5
23
330
1
100
AcDbSymbolTableRecord
100
AcDbBlockTableRecord
  2
*Paper_Space0
340
26
  0
ENDTAB
  0
ENDSEC
  0
SECTION
  2
BLOCKS
  0
BLOCK
  5
20
330
1F
100
AcDbEntity
  8
0
100
AcDbBlockBegin
  2
*Model_Space
 70
     0
 10
0.0
 20
0.0
 30
0.0
  3
*Model_Space
  1
*Model_Space
  0
ENDBLK
  5
21
330
1F
100
AcDbEntity
  8
0
100
AcDbBlockEnd
  0
BLOCK
  5
1C
330
1B
100
AcDbEntity
 67
     1
  8
0
100
AcDbBlockBegin
  2
*Paper_Space
 70
     0
 10
0.0
 20
0.0
 30
0.0
  3
*Paper_Space
  1
*Paper_Space
  0
ENDBLK
  5
1D
330
1B
100
AcDbEntity
 67
     1
  8
0
100
AcDbBlockEnd
  0
BLOCK
  5
24
330
23
100
AcDbEntity
  8
0
100
AcDbBlockBegin
  2
*Paper_Space0
 70
     0
 10
0.0
 20
0.0
 30
0.0
  3
*Paper_Space0
  1
*Paper_Space0
  0
ENDBLK
  5
25
330
23
100
AcDbEntity
  8
0
100
AcDbBlockEnd
  0
ENDSEC
  0
SECTION
  2
ENTITIES
  0
LWPOLYLINE
  5
6F
330
1F
100
AcDbEntity
  8
0
  6
Continuous
 62
     7
100
AcDbPolyline
 90
       26
 70
   128
 43
0.0
 10
0.269230688
 20
0.0
 10
0.7312700321
 20
3.5
 10
0.7312700321
 20
3.5
 10
0.7761418269
 20
3.5
 10
0.7761418269
 20
3.5
 10
2.2211538462
 20
0.6282051282
 10
2.2211538462
 20
0.6282051282
 10
3.6626602564
 20
3.5
 10
3.6626602564
 20
3.5
 10
3.7082331731
 20
3.5
 10
3.7082331731
 20
3.5
 10
4.1730769231
 20
0.0
 10
4.1730769231
 20
0.0
 10
3.8575721154
 20
0.0
 10
3.8575721154
 20
0.0
 10
3.5224358974
 20
2.5184294872
 10
3.5224358974
 20
2.5184294872
 10
2.2590144231
 20
0.0
 10
2.2590144231
 20
0.0
 10
2.1882011218
 20
0.0
 10
2.1882011218
 20
0.0
 10
0.9198717949
 20
2.5240384615
 10
0.9198717949
 20
2.5240384615
 10
0.5854366987
 20
0.0
 10
0.5854366987
 20
0.0
 10
0.2692307692
 20
0.0
  0
LWPOLYLINE
  5
70
330
1F
100
AcDbEntity
  8
0
  6
Continuous
 62
     7
100
AcDbPolyline
 90
       16
 70
   128
 43
0.0
 10
6.3269212842
 20
3.5
 10
7.9423076923
 20
0.0
 10
7.9423076923
 20
0.0
 10
7.6008613782
 20
0.0
 10
7.6008613782
 20
0.0
 10
7.0834334936
 20
1.1217948718
 10
7.0834334936
 20
1.1217948718
 10
5.4967948718
 20
1.1217948718
 10
5.4967948718
 20
1.1217948718
 10
4.9646434295
 20
0.0
 10
4.9646434295
 20
0.0
 10
4.6217948718
 20
0.0
 10
4.6217948718
 20
0.0
 10
6.2820512821
 20
3.5
 10
6.2820512821
 20
3.5
 10
6.3269230769
 20
3.5
  0
LWPOLYLINE
  5
71
330
1F
100
AcDbEntity
  8
0
  6
Continuous
 62
     7
100
AcDbPolyline
 90
        6
 70
   128
 43
0.0
 10
6.3009783626
 20
2.8178084936
 10
5.6671674679
 20
1.4807692308
 10
5.6671674679
 20
1.4807692308
 10
6.91796875
 20
1.4807692308
 10
6.91796875
 20
1.4807692308
 10
6.3009815705
 20
2.8178084936
  0
LWPOLYLINE
  5
72
330
1F
100
AcDbEntity
  8
0
  6
Continuous
 62
     7
100
AcDbPolyline
 90
       16
 70
   128
 43
0.0
 10
8.1666633487
 20
3.141025641
 10
8.1666666667
 20
3.5
 10
8.1666666667
 20
3.5
 10
10.0064102564
 20
3.5
 10
10.0064102564
 20
3.5
 10
10.0064102564
 20
3.141025641
 10
10.0064102564
 20
3.141025641
 10
9.2435897436
 20
3.141025641
 10
9.2435897436
 20
3.141025641
 10
9.2435897436
 20
0.0
 10
9.2435897436
 20
0.0
 10
8.9294871795
 20
0.0
 10
8.9294871795
 20
0.0
 10
8.9294871795
 20
3.141025641
 10
8.9294871795
 20
3.141025641
 10
8.1666666667
 20
3.141025641
  0
LWPOLYLINE
  5
73
330
1F
100
AcDbEntity
  8
0
  6
Continuous
 62
     7
100
AcDbPolyline
 90
       24
 70
   128
 43
0.0
 10
10.5448663235
 20
3.5
 10
12.5192307692
 20
3.5
 10
12.5192307692
 20
3.5
 10
12.5192307692
 20
3.141025641
 10
12.5192307692
 20
3.141025641
 10
10.858974359
 20
3.141025641
 10
10.858974359
 20
3.141025641
 10
10.858974359
 20
2.0641025641
 10
10.858974359
 20
2.0641025641
 10
12.5192307692
 20
2.0641025641
 10
12.5192307692
 20
2.0641025641
 10
12.5192307692
 20
1.7051282051
 10
12.5192307692
 20
1.7051282051
 10
10.858974359
 20
1.7051282051
 10
10.858974359
 20
1.7051282051
 10
10.858974359
 20
0.358974359
 10
10.858974359
 20
0.358974359
 10
12.5192307692
 20
0.358974359
 10
12.5192307692
 20
0.358974359
 10
12.5192307692
 20
0.0
 10
12.5192307692
 20
0.0
 10
10.5448717949
 20
0.0
 10
10.5448717949
 20
0.0
 10
10.5448717949
 20
3.5
  0
LWPOLYLINE
  5
74
330
1F
100
AcDbEntity
  8
0
  6
Continuous
 62
     7
100
AcDbPolyline
 90
      107
 70
   128
 43
0.0
 10
13.1474286318
 20
3.5
 10
13.4615384615
 20
3.5
 10
13.4615384615
 20
3.5
 10
13.4615384615
 20
1.4029447115
 10
13.4615384615
 20
1.4029447115
 10
13.4615384615
 20
1.3139022436
 10
13.4622395833
 20
1.233974359
 10
13.4636418269
 20
1.1624599359
 10
13.4650440705
 20
1.1000600962
 10
13.4671474359
 20
1.0460737179
 10
13.4692508013
 20
1.0012019231
 10
13.4720552885
 20
0.9647435897
 10
13.4755608974
 20
0.9373998397
 10
13.4755608974
 20
0.9373998397
 10
13.4930889423
 20
0.8392427885
 10
13.5190304487
 20
0.7487980769
 10
13.5540865385
 20
0.6674679487
 10
13.5968549679
 20
0.5938501603
 10
13.6508413462
 20
0.5279447115
 10
13.7174479167
 20
0.4669471154
 10
13.7973758013
 20
0.4122596154
 10
13.8892227564
 20
0.3624799679
 10
13.9880809295
 20
0.3218149038
 10
14.0869391026
 20
0.2923677885
 10
14.1864983974
 20
0.2748397436
 10
14.2860576923
 20
0.2692307692
 10
14.2860576923
 20
0.2692307692
 10
14.3715945513
 20
0.2741386218
 10
14.4557291667
 20
0.2874599359
 10
14.5377604167
 20
0.3105969551
 10
14.6183894231
 20
0.3421474359
 10
14.6948116987
 20
0.3828125
 10
14.7642227564
 20
0.4297876603
 10
14.8273237179
 20
0.4844751603
 10
14.8841145833
 20
0.5454727564
 10
14.9338942308
 20
0.6134815705
 10
14.9773637821
 20
0.6892027244
 10
15.0124198718
 20
0.7705328526
 10
15.0411658654
 20
0.8595753205
 10
15.0411658654
 20
0.8595753205
 10
15.0495793269
 20
0.8967347756
 10
15.0565905449
 20
0.9430088141
 10
15.062900641
 20
0.9983974359
 10
15.0678084936
 20
1.0614983974
 10
15.0720152244
 20
1.1337139423
 10
15.0748197115
 20
1.2150440705
 10
15.0762219551
 20
1.3047876603
 10
15.0769230769
 20
1.4029447115
 10
15.0769230769
 20
1.4029447115
 10
15.0769230769
 20
3.5
 10
15.0769230769
 20
3.5
 10
15.391025641
 20
3.5
 10
15.391025641
 20
3.5
 10
15.391025641
 20
1.3861177885
 10
15.391025641
 20
1.3861177885
 10
15.3896233974
 20
1.2718349359
 10
15.3854166667
 20
1.1631610577
 10
15.3784054487
 20
1.0593950321
 10
15.3685897436
 20
0.9619391026
 10
15.3559695513
 20
0.8700921474
 10
15.3412459936
 20
0.7838541667
 10
15.3230168269
 20
0.7025240385
 10
15.3019831731
 20
0.6275040064
 10
15.2774439103
 20
0.5566907051
 10
15.2465945513
 20
0.4879807692
 10
15.2108373397
 20
0.4213741987
 10
15.1694711538
 20
0.3575721154
 10
15.1217948718
 20
0.2951722756
 10
15.0692107372
 20
0.2362780449
 10
15.0110176282
 20
0.1787860577
 10
14.9472155449
 20
0.1240985577
 10
14.8792067308
 20
0.0743189103
 10
14.8076923077
 20
0.030849359
 10
14.7319711538
 20
-0.0063100962
 10
14.6534455128
 20
-0.0364583333
 10
14.5714142628
 20
-0.0595953526
 10
14.4858774038
 20
-0.0764222756
 10
14.3961338141
 20
-0.0862379808
 10
14.3035857372
 20
-0.0897435897
 10
14.3035857372
 20
-0.0897435897
 10
14.2026241987
 20
-0.0862379808
 10
14.105869391
 20
-0.0771233974
 10
14.0126201923
 20
-0.0609975962
 10
13.9228766026
 20
-0.0392628205
 10
13.8366386218
 20
-0.0105168269
 10
13.7546073718
 20
0.023838141
 10
13.6760817308
 20
0.0652043269
 10
13.6010616987
 20
0.1121794872
 10
13.5309495192
 20
0.1647636218
 10
13.4671474359
 20
0.2215544872
 10
13.4089543269
 20
0.2825520833
 10
13.3570713141
 20
0.3477564103
 10
13.3114983974
 20
0.4164663462
 10
13.2715344551
 20
0.4900841346
 10
13.237880609
 20
0.5672075321
 10
13.2098357372
 20
0.6485376603
 10
13.2098357372
 20
0.6485376603
 10
13.1951121795
 20
0.7046274038
 10
13.1824919872
 20
0.7712339744
 10
13.1719751603
 20
0.8483573718
 10
13.1628605769
 20
0.9352964744
 10
13.1565504808
 20
1.0327524038
 10
13.1516426282
 20
1.1400240385
 10
13.1481370192
 20
1.2578125
 10
13.1474358974
 20
1.3861177885
 10
13.1474358974
 20
1.3861177885
 10
13.1474358974
 20
3.5
  0
LWPOLYLINE
  5
75
330
1F
100
AcDbEntity
  8
0
  6
Continuous
 62
     7
100
AcDbPolyline
 90
      171
 70
   128
 43
0.0
 10
15.9294754267
 20
0.6751802885
 10
16.2253605769
 20
0.8525641026
 10
16.2253605769
 20
0.8525641026
 10
16.3101963141
 20
0.7158453526
 10
16.3978365385
 20
0.5973557692
 10
16.4889823718
 20
0.4970953526
 10
16.5836338141
 20
0.4150641026
 10
16.6810897436
 20
0.3512620192
 10
16.7820512821
 20
0.3056891026
 10
16.8865184295
 20
0.2783453526
 10
16.9937900641
 20
0.2692307692
 10
16.9937900641
 20
0.2692307692
 10
17.0856370192
 20
0.2741386218
 10
17.1746794872
 20
0.2895633013
 10
17.2609174679
 20
0.3148036859
 10
17.3443509615
 20
0.3505608974
 10
17.421474359
 20
0.3947315705
 10
17.4887820513
 20
0.4466145833
 10
17.5462740385
 20
0.5048076923
 10
17.5939503205
 20
0.5700120192
 10
17.6311097756
 20
0.6401241987
 10
17.6584535256
 20
0.7123397436
 10
17.6738782051
 20
0.7859575321
 10
17.6794871795
 20
0.8623798077
 10
17.6794871795
 20
0.8623798077
 10
17.6717748397
 20
0.9493189103
 10
17.6479366987
 20
1.0362580128
 10
17.6086738782
 20
1.12109375
 10
17.5539863782
 20
1.2059294872
 10
17.5539863782
 20
1.2059294872
 10
17.5063100962
 20
1.2655248397
 10
17.4502203526
 20
1.3279246795
 10
17.3843149038
 20
1.3931290064
 10
17.3099959936
 20
1.4618389423
 10
17.2265625
 20
1.5326522436
 10
17.1347155449
 20
1.6069711538
 10
17.0330528846
 20
1.6840945513
 10
16.9229767628
 20
1.7640224359
 10
16.9229767628
 20
1.7640224359
 10
16.812900641
 20
1.8432491987
 10
16.7140424679
 20
1.917568109
 10
16.6264022436
 20
1.9855769231
 10
16.5492788462
 20
2.0479767628
 10
16.4826722756
 20
2.1047676282
 10
16.4272836538
 20
2.1552483974
 10
16.3831129808
 20
2.2008213141
 10
16.3494591346
 20
2.2400841346
 10
16.3494591346
 20
2.2400841346
 10
16.3038862179
 20
2.3024839744
 10
16.2639222756
 20
2.3655849359
 10
16.2302684295
 20
2.430088141
 10
16.2029246795
 20
2.4966947115
 10
16.1811899038
 20
2.5633012821
 10
16.1657652244
 20
2.6320112179
 10
16.156650641
 20
2.7021233974
 10
16.1538461538
 20
2.7729366987
 10
16.1538461538
 20
2.7729366987
 10
16.1608573718
 20
2.8837139423
 10
16.1818910256
 20
2.9902844551
 10
16.2162459936
 20
3.0912459936
 10
16.2646233974
 20
3.1872996795
 10
16.3263221154
 20
3.2756410256
 10
16.3985376603
 20
3.3548677885
 10
16.4826722756
 20
3.4228766026
 10
16.5773237179
 20
3.4817708333
 10
16.6803886218
 20
3.5287459936
 10
16.7883613782
 20
3.5631009615
 10
16.8998397436
 20
3.5827323718
 10
17.0162259615
 20
3.5897435897
 10
17.0162259615
 20
3.5897435897
 10
17.1396233974
 20
3.58203125
 10
17.2595152244
 20
3.558193109
 10
17.3744991987
 20
3.5182291667
 10
17.4859775641
 20
3.4628405449
 10
17.5413661859
 20
3.4277844551
 10
17.5967548077
 20
3.3864182692
 10
17.6535456731
 20
3.3380408654
 10
17.7110376603
 20
3.2833533654
 10
17.7692307692
 20
3.2216546474
 10
17.828125
 20
3.1536458333
 10
17.8884214744
 20
3.0786258013
 10
17.9487179487
 20
2.9972956731
 10
17.9487179487
 20
2.9972956731
 10
17.6647636218
 20
2.7820512821
 10
17.6647636218
 20
2.7820512821
 10
17.612880609
 20
2.8479567308
 10
17.5631009615
 20
2.9075520833
 10
17.5154246795
 20
2.9615384615
 10
17.469150641
 20
3.0092147436
 10
17.4256810897
 20
3.0512820513
 10
17.3836137821
 20
3.0877403846
 10
17.3429487179
 20
3.1185897436
 10
17.305088141
 20
3.1431290064
 10
17.2293669872
 20
3.1816907051
 10
17.1501402244
 20
3.2090344551
 10
17.0674078526
 20
3.2251602564
 10
16.9811698718
 20
3.2307692308
 10
16.9811698718
 20
3.2307692308
 10
16.8731971154
 20
3.223056891
 10
16.7757411859
 20
3.1985176282
 10
16.6888020833
 20
3.1585536859
 10
16.6116786859
 20
3.1024639423
 10
16.5485777244
 20
3.03515625
 10
16.5037059295
 20
2.9601362179
 10
16.4770633013
 20
2.8774038462
 10
16.4679487179
 20
2.7876602564
 10
16.4679487179
 20
2.7876602564
 10
16.4707532051
 20
2.7315705128
 10
16.4805689103
 20
2.676181891
 10
16.4952924679
 20
2.621494391
 10
16.5170272436
 20
2.5675080128
 10
16.5471754808
 20
2.5128205128
 10
16.5871394231
 20
2.4560296474
 10
16.6376201923
 20
2.3971354167
 10
16.6986177885
 20
2.3354366987
 10
16.6986177885
 20
2.3354366987
 10
16.7217548077
 20
2.3151041667
 10
16.7547075321
 20
2.2884615385
 10
16.7981770833
 20
2.2555088141
 10
16.8521634615
 20
2.21484375
 10
16.9159655449
 20
2.1678685897
 10
16.9902844551
 20
2.1145833333
 10
17.0744190705
 20
2.054286859
 10
17.1690705128
 20
1.9869791667
 10
17.1690705128
 20
1.9869791667
 10
17.2826522436
 20
1.9035456731
 10
17.387119391
 20
1.8229166667
 10
17.4817708333
 20
1.7443910256
 10
17.5673076923
 20
1.66796875
 10
17.6437299679
 20
1.5943509615
 10
17.7110376603
 20
1.5228365385
 10
17.7692307692
 20
1.4534254808
 10
17.8176081731
 20
1.3861177885
 10
17.8947315705
 20
1.254306891
 10
17.9494190705
 20
1.1224959936
 10
17.9823717949
 20
0.9899839744
 10
17.9935897436
 20
0.8574719551
 10
17.9935897436
 20
0.8574719551
 10
17.9893830128
 20
0.7635216346
 10
17.9753605769
 20
0.6723758013
 10
17.9529246795
 20
0.5847355769
 10
17.9206730769
 20
0.4998998397
 10
17.8800080128
 20
0.4178685897
 10
17.8295272436
 20
0.3393429487
 10
17.7706330128
 20
0.2643229167
 10
17.7019230769
 20
0.1921073718
 10
17.6269030449
 20
0.1262019231
 10
17.5483774038
 20
0.0687099359
 10
17.4656450321
 20
0.0203325321
 10
17.3794070513
 20
-0.0189302885
 10
17.2889623397
 20
-0.0497796474
 10
17.1943108974
 20
-0.0722155449
 10
17.0961538462
 20
-0.085536859
 10
16.9937900641
 20
-0.0897435897
 10
16.9937900641
 20
-0.0897435897
 10
16.9145633013
 20
-0.0869391026
 10
16.8367387821
 20
-0.078525641
 10
16.7610176282
 20
-0.0652043269
 10
16.6873998397
 20
-0.0455729167
 10
16.6158854167
 20
-0.0210336538
 10
16.5457732372
 20
0.0091145833
 10
16.4777644231
 20
0.0448717949
 10
16.4111578526
 20
0.0862379808
 10
16.3466546474
 20
0.1339142628
 10
16.2835536859
 20
0.1893028846
 10
16.2211538462
 20
0.2517027244
 10
16.16015625
 20
0.3218149038
 10
16.1005608974
 20
0.3989383013
 10
16.0423677885
 20
0.4837740385
 10
15.9855769231
 20
0.5756209936
 10
15.9294871795
 20
0.6751802885
  0
ENDSEC
  0
SECTION
  2
OBJECTS
  0
DICTIONARY
  5
C
330
0
100
AcDbDictionary
281
     1
  3
ACAD_GROUP
350
D
  3
ACAD_LAYOUT
350
1A
  3
ACAD_MLINESTYLE
350
17
  3
ACAD_PLOTSETTINGS
350
19
  3
ACAD_PLOTSTYLENAME
350
E
  3
ACAD_SCALELIST
350
47
  0
DICTIONARY
  5
D
102
{ACAD_REACTORS
330
C
102
}
330
C
100
AcDbDictionary
281
     1
  0
DICTIONARY
  5
1A
102
{ACAD_REACTORS
330
C
102
}
330
C
100
AcDbDictionary
281
     1
  3
Layout1
350
1E
  3
Layout2
350
26
  3
Model
350
22
  0
DICTIONARY
  5
17
102
{ACAD_REACTORS
330
C
102
}
330
C
100
AcDbDictionary
281
     1
  3
Standard
350
18
  0
DICTIONARY
  5
19
102
{ACAD_REACTORS
330
C
102
}
330
C
100
AcDbDictionary
281
     1
  0
ACDBDICTIONARYWDFLT
  5
E
102
{ACAD_REACTORS
330
C
102
}
330
C
100
AcDbDictionary
281
     1
  3
Normal
350
F
100
AcDbDictionaryWithDefault
340
F
  0
DICTIONARY
  5
47
102
{ACAD_REACTORS
330
C
102
}
330
C
100
AcDbDictionary
281
     1
  3
A0
350
48
  3
A1
350
49
  3
A2
350
4A
  3
A3
350
4B
  3
A4
350
4C
  3
A5
350
4D
  3
A6
350
4E
  3
A7
350
4F
  3
A8
350
50
  3
A9
350
51
  3
B0
350
52
  3
B1
350
53
  3
B2
350
54
  3
B3
350
55
  3
B4
350
56
  3
B5
350
57
  3
B6
350
58
  3
B7
350
59
  3
B8
350
5A
  3
B9
350
5B
  3
C0
350
5C
  3
C1
350
5D
  3
C2
350
5E
  3
C3
350
5F
  3
C4
350
60
  3
C5
350
61
  3
C6
350
62
  3
C7
350
63
  3
C8
350
64
  3
C9
350
65
  3
D0
350
66
  3
D1
350
67
  3
D2
350
68
  0
LAYOUT
  5
1E
102
{ACAD_REACTORS
330
1A
102
}
330
1A
100
AcDbPlotSettings
  1

  2
none_device
  4

  6

 40
0.0
 41
0.0
 42
0.0
 43
0.0
 44
0.0
 45
0.0
 46
0.0
 47
0.0
 48
0.0
 49
0.0
140
0.0
141
0.0
142
1.0
143
1.0
 70
   688
 72
     1
 73
     0
 74
     5
  7

 75
    16
147
1.0
148
0.0
149
0.0
100
AcDbLayout
  1
Layout1
 70
     1
 71
     1
 10
0.0
 20
0.0
 11
420.0
 21
297.0
 12
0.0
 22
0.0
 32
0.0
 14
1.0000000000E+20
 24
1.0000000000E+20
 34
1.0000000000E+20
 15
-1.0000000000E+20
 25
-1.0000000000E+20
 35
-1.0000000000E+20
146
0.0
 13
0.0
 23
0.0
 33
0.0
 16
1.0
 26
0.0
 36
0.0
 17
0.0
 27
1.0
 37
0.0
 76
     0
330
1B
  0
LAYOUT
  5
26
102
{ACAD_REACTORS
330
1A
102
}
330
1A
100
AcDbPlotSettings
  1

  2
none_device
  4

  6

 40
0.0
 41
0.0
 42
0.0
 43
0.0
 44
0.0
 45
0.0
 46
0.0
 47
0.0
 48
0.0
 49
0.0
140
0.0
141
0.0
142
1.0
143
1.0
 70
   688
 72
     1
 73
     0
 74
     5
  7

 75
    16
147
1.0
148
0.0
149
0.0
100
AcDbLayout
  1
Layout2
 70
     1
 71
     2
 10
0.0
 20
0.0
 11
0.0
 21
0.0
 12
0.0
 22
0.0
 32
0.0
 14
0.0
 24
0.0
 34
0.0
 15
0.0
 25
0.0
 35
0.0
146
0.0
 13
0.0
 23
0.0
 33
0.0
 16
1.0
 26
0.0
 36
0.0
 17
0.0
 27
1.0
 37
0.0
 76
     0
330
23
  0
LAYOUT
  5
22
102
{ACAD_REACTORS
330
1A
102
}
330
1A
100
AcDbPlotSettings
  1

  2
none_device
  4
ANSI_A_(11.00_x_8.50_Inches)
  6

 40
6.35
 41
19.05
 42
6.35000508
 43
19.05000254
 44
279.4
 45
215.9
 46
-9.1546113795
 47
61.5895330324
 48
0.0
 49
0.0
140
0.0
141
0.0
142
0.6144086771
143
1.0
 70
  1696
 72
     0
 73
     0
 74
     0
  7

 75
     0
147
0.0179189148
148
-1300.4909072572
149
0.0
100
AcDbLayout
  1
Model
 70
     1
 71
     0
 10
0.0
 20
0.0
 11
420.0
 21
297.0
 12
0.0
 22
0.0
 32
0.0
 14
0.269230688
 24
-0.0897435897
 34
0.0
 15
17.9935897436
 25
3.5897435897
 35
0.0
146
0.0
 13
0.0
 23
0.0
 33
0.0
 16
1.0
 26
0.0
 36
0.0
 17
0.0
 27
1.0
 37
0.0
 76
     0
330
1F
331
29
  0
MLINESTYLE
  5
18
102
{ACAD_REACTORS
330
17
102
}
330
17
100
AcDbMlineStyle
  2
Standard
 70
     0
  3

 62
   256
 51
90.0
 52
90.0
 71
     2
 49
0.5
 62
   256
  6
BYLAYER
 49
-0.5
 62
   256
  6
BYLAYER
  0
ACDBPLACEHOLDER
  5
F
102
{ACAD_REACTORS
330
E
102
}
330
E
  0
SCALE
  5
48
102
{ACAD_REACTORS
330
47
102
}
330
47
100
AcDbScale
 70
     0
300
1:1
140
1.0
141
1.0
290
     1
  0
SCALE
  5
49
102
{ACAD_REACTORS
330
47
102
}
330
47
100
AcDbScale
 70
     0
300
1:2
140
1.0
141
2.0
290
     0
  0
SCALE
  5
4A
102
{ACAD_REACTORS
330
47
102
}
330
47
100
AcDbScale
 70
     0
300
1:4
140
1.0
141
4.0
290
     0
  0
SCALE
  5
4B
102
{ACAD_REACTORS
330
47
102
}
330
47
100
AcDbScale
 70
     0
300
1:5
140
1.0
141
5.0
290
     0
  0
SCALE
  5
4C
102
{ACAD_REACTORS
330
47
102
}
330
47
100
AcDbScale
 70
     0
300
1:8
140
1.0
141
8.0
290
     0
  0
SCALE
  5
4D
102
{ACAD_REACTORS
330
47
102
}
330
47
100
AcDbScale
 70
     0
300
1:10
140
1.0
141
10.0
290
     0
  0
SCALE
  5
4E
102
{ACAD_REACTORS
330
47
102
}
330
47
100
AcDbScale
 70
     0
300
1:16
140
1.0
141
16.0
290
     0
  0
SCALE
  5
4F
102
{ACAD_REACTORS
330
47
102
}
330
47
100
AcDbScale
 70
     0
300
1:20
140
1.0
141
20.0
290
     0
  0
SCALE
  5
50
102
{ACAD_REACTORS
330
47
102
}
330
47
100
AcDbScale
 70
     0
300
1:30
140
1.0
141
30.0
290
     0
  0
SCALE
  5
51
102
{ACAD_REACTORS
330
47
102
}
330
47
100
AcDbScale
 70
     0
300
1:40
140
1.0
141
40.0
290
     0
  0
SCALE
  5
52
102
{ACAD_REACTORS
330
47
102
}
330
47
100
AcDbScale
 70
     0
300
1:50
140
1.0
141
50.0
290
     0
  0
SCALE
  5
53
102
{ACAD_REACTORS
330
47
102
}
330
47
100
AcDbScale
 70
     0
300
1:100
140
1.0
141
100.0
290
     0
  0
SCALE
  5
54
102
{ACAD_REACTORS
330
47
102
}
330
47
100
AcDbScale
 70
     0
300
2:1
140
2.0
141
1.0
290
     0
  0
SCALE
  5
55
102
{ACAD_REACTORS
330
47
102
}
330
47
100
AcDbScale
 70
     0
300
4:1
140
4.0
141
1.0
290
     0
  0
SCALE
  5
56
102
{ACAD_REACTORS
330
47
102
}
330
47
100
AcDbScale
 70
     0
300
8:1
140
8.0
141
1.0
290
     0
  0
SCALE
  5
57
102
{ACAD_REACTORS
330
47
102
}
330
47
100
AcDbScale
 70
     0
300
10:1
140
10.0
141
1.0
290
     0
  0
SCALE
  5
58
102
{ACAD_REACTORS
330
47
102
}
330
47
100
AcDbScale
 70
     0
300
100:1
140
100.0
141
1.0
290
     0
  0
SCALE
  5
59
102
{ACAD_REACTORS
330
47
102
}
330
47
100
AcDbScale
 70
     0
300
1/128" = 1'-0"
140
0.0078125
141
12.0
290
     0
  0
SCALE
  5
5A
102
{ACAD_REACTORS
330
47
102
}
330
47
100
AcDbScale
 70
     0
300
1/64" = 1'-0"
140
0.015625
141
12.0
290
     0
  0
SCALE
  5
5B
102
{ACAD_REACTORS
330
47
102
}
330
47
100
AcDbScale
 70
     0
300
1/32" = 1'-0"
140
0.03125
141
12.0
290
     0
  0
SCALE
  5
5C
102
{ACAD_REACTORS
330
47
102
}
330
47
100
AcDbScale
 70
     0
300
1/16" = 1'-0"
140
0.0625
141
12.0
290
     0
  0
SCALE
  5
5D
102
{ACAD_REACTORS
330
47
102
}
330
47
100
AcDbScale
 70
     0
300
3/32" = 1'-0"
140
0.09375
141
12.0
290
     0
  0
SCALE
  5
5E
102
{ACAD_REACTORS
330
47
102
}
330
47
100
AcDbScale
 70
     0
300
1/8" = 1'-0"
140
0.125
141
12.0
290
     0
  0
SCALE
  5
5F
102
{ACAD_REACTORS
330
47
102
}
330
47
100
AcDbScale
 70
     0
300
3/16" = 1'-0"
140
0.1875
141
12.0
290
     0
  0
SCALE
  5
60
102
{ACAD_REACTORS
330
47
102
}
330
47
100
AcDbScale
 70
     0
300
1/4" = 1'-0"
140
0.25
141
12.0
290
     0
  0
SCALE
  5
61
102
{ACAD_REACTORS
330
47
102
}
330
47
100
AcDbScale
 70
     0
300
3/8" = 1'-0"
140
0.375
141
12.0
290
     0
  0
SCALE
  5
62
102
{ACAD_REACTORS
330
47
102
}
330
47
100
AcDbScale
 70
     0
300
1/2" = 1'-0"
140
0.5
141
12.0
290
     0
  0
SCALE
  5
63
102
{ACAD_REACTORS
330
47
102
}
330
47
100
AcDbScale
 70
     0
300
3/4" = 1'-0"
140
0.75
141
12.0
290
     0
  0
SCALE
  5
64
102
{ACAD_REACTORS
330
47
102
}
330
47
100
AcDbScale
 70
     0
300
1" = 1'-0"
140
1.0
141
12.0
290
     0
  0
SCALE
  5
65
102
{ACAD_REACTORS
330
47
102
}
330
47
100
AcDbScale
 70
     0
300
1-1/2" = 1'-0"
140
1.5
141
12.0
290
     0
  0
SCALE
  5
66
102
{ACAD_REACTORS
330
47
102
}
330
47
100
AcDbScale
 70
     0
300
3" = 1'-0"
140
3.0
141
12.0
290
     0
  0
SCALE
  5
67
102
{ACAD_REACTORS
330
47
102
}
330
47
100
AcDbScale
 70
     0
300
6" = 1'-0"
140
6.0
141
12.0
290
     0
  0
SCALE
  5
68
102
{ACAD_REACTORS
330
47
102
}
330
47
100
AcDbScale
 70
     0
300
1'-0" = 1'-0"
140
12.0
141
12.0
290
     0
  0
ENDSEC
  0
EOF
